HIERARCHY
ROOT root
{
	OFFSET 0.000000 0.000000 0.000000
	CHANNELS 6 Xposition Yposition Zposition Zrotation Yrotation Xrotation
	JOINT lhip
	{
		OFFSET 0.058581 -0.082280 -0.017664
		CHANNELS 3 Zrotation Yrotation Xrotation
		JOINT lknee
		{
			OFFSET 0.043451 -0.386469 0.008037
			CHANNELS 3 Zrotation Yrotation Xrotation
			JOINT lankle
			{
				OFFSET -0.014790 -0.426874 -0.037428
				CHANNELS 3 Zrotation Yrotation Xrotation
				JOINT ltoe
				{
					OFFSET 0.041054 -0.060286 0.122042
					CHANNELS 3 Zrotation Yrotation Xrotation
					End Site
					{
						OFFSET 0.000000 0.000000 0.000000
					}
				}
			}
		}
	}
	JOINT rhip
	{
		OFFSET -0.060310 -0.090513 -0.013543
		CHANNELS 3 Zrotation Yrotation Xrotation
		JOINT rknee
		{
			OFFSET -0.043257 -0.383688 -0.004843
			CHANNELS 3 Zrotation Yrotation Xrotation
			JOINT rankle
			{
				OFFSET 0.019056 -0.420046 -0.034562
				CHANNELS 3 Zrotation Yrotation Xrotation
				JOINT rtoe
				{
					OFFSET -0.034840 -0.062106 0.130323
					CHANNELS 3 Zrotation Yrotation Xrotation
					End Site
					{
						OFFSET 0.000000 0.000000 0.000000
					}
				}
			}
		}
	}
	JOINT lowerback
	{
		OFFSET 0.004439 0.124404 -0.038385
		CHANNELS 3 Zrotation Yrotation Xrotation
		JOINT upperback
		{
			OFFSET 0.004488 0.137956 0.026820
			CHANNELS 3 Zrotation Yrotation Xrotation
			JOINT chest
			{
				OFFSET -0.002265 0.056032 0.002855
				CHANNELS 3 Zrotation Yrotation Xrotation
				JOINT lowerneck
				{
					OFFSET -0.013390 0.211636 -0.033468
					CHANNELS 3 Zrotation Yrotation Xrotation
					JOINT upperneck
					{
						OFFSET 0.010113 0.088937 0.050410
						CHANNELS 3 Zrotation Yrotation Xrotation
						End Site
						{
							OFFSET 0.000000 0.000000 0.000000
						}
					}
				}
				JOINT lclavicle
				{
					OFFSET 0.071702 0.114000 -0.018898
					CHANNELS 3 Zrotation Yrotation Xrotation
					JOINT lshoulder
					{
						OFFSET 0.122921 0.045205 -0.019046
						CHANNELS 3 Zrotation Yrotation Xrotation
						JOINT lelbow
						{
							OFFSET 0.255332 -0.015649 -0.022946
							CHANNELS 3 Zrotation Yrotation Xrotation
							JOINT lwrist
							{
								OFFSET 0.265709 0.012698 -0.007375
								CHANNELS 3 Zrotation Yrotation Xrotation
								End Site
								{
									OFFSET 0.000000 0.000000 0.000000
								}
							}
						}
					}
				}
				JOINT rclavicle
				{
					OFFSET -0.082954 0.112472 -0.023707
					CHANNELS 3 Zrotation Yrotation Xrotation
					JOINT rshoulder
					{
						OFFSET -0.113228 0.046853 -0.008472
						CHANNELS 3 Zrotation Yrotation Xrotation
						JOINT relbow
						{
							OFFSET -0.260127 -0.014369 -0.031269
							CHANNELS 3 Zrotation Yrotation Xrotation
							JOINT rwrist
							{
								OFFSET -0.269108 0.006794 -0.006027
								CHANNELS 3 Zrotation Yrotation Xrotation
								End Site
								{
									OFFSET 0.000000 0.000000 0.000000
								}
							}
						}
					}
				}
			}
		}
	}
}
MOTION
Frames: 8
Frame Time: 0.033333
0.051477 -0.387440 0.915914 -170.905028 0.896511 102.795544 17.935740 4.308480 4.955979 -8.889639 -16.971211 23.576034 -4.552875 13.528213 -18.527958 0.000000 -0.000000 0.000000 -12.271001 -9.838939 -54.917395 0.410572 -16.916430 78.158072 0.206267 -12.138524 -9.808687 0.000000 -0.000000 0.000000 -1.956773 -10.638587 12.554465 2.903199 -0.687055 5.557587 -1.154203 -1.237171 -5.768998 -6.016777 2.033170 -6.204092 0.860925 -3.018429 5.422445 -26.879198 0.475927 -0.557372 -26.807060 -10.588066 13.696056 42.351082 -82.928707 -36.704466 13.940646 -17.138691 -7.193229 28.396415 0.866933 1.502409 36.699305 -11.586583 7.512627 -0.982449 46.265975 -7.461013 -4.171505 14.736117 -26.854037 
0.061499 -0.304187 0.934367 -170.494214 1.565864 103.650456 20.913708 5.760450 10.766274 -5.541586 -16.186710 16.087541 -10.120663 10.325210 -3.674960 0.000000 -0.000000 0.000000 -13.461528 -10.293955 -55.532333 0.339568 -21.142442 59.685110 0.167050 -11.414113 -8.715730 0.000000 -0.000000 0.000000 1.215356 -14.257047 7.730362 2.973037 -2.698040 8.978740 -1.597188 -1.840873 -7.034961 -6.724700 5.227348 -4.326203 0.160637 -1.290748 4.507493 -26.043301 0.280333 0.264094 -26.878944 -10.469516 13.793240 72.159437 -85.268561 -66.082705 13.548044 -18.064897 -5.965936 26.405067 0.032553 2.297584 34.811029 -11.710686 6.143192 0.117558 45.222775 -10.011989 -3.078160 15.540752 -24.949912 
0.070527 -0.217114 0.945368 -171.391949 1.026341 104.350644 20.821359 6.720180 15.669987 -2.568571 -16.361856 11.206931 -10.042882 9.791737 3.234764 0.000000 -0.000000 0.000000 -13.272935 -11.213060 -54.225617 1.931905 -22.146194 39.756639 1.968707 -10.617842 -4.068836 0.000000 -0.000000 0.000000 3.137145 -15.994915 5.398593 3.124024 -4.206791 6.898690 -1.560361 -2.325590 -5.880949 -10.063030 4.993113 -0.778993 1.237113 3.148650 1.411113 -26.685956 0.411851 1.557554 -26.890479 -9.256890 14.102881 92.201387 -87.213458 -85.081245 14.725383 -18.264352 -6.148403 24.952631 -1.312679 3.609103 31.930440 -9.910508 4.159130 2.031397 44.209527 -10.300944 -0.938050 16.408793 -21.882164 
0.082683 -0.132610 0.945468 -173.035335 1.129429 104.481045 19.290024 5.754351 15.772115 -1.760939 -13.203075 19.699511 -8.709261 11.671337 -1.953664 0.000000 -0.000000 0.000000 -12.153771 -10.724162 -53.680104 3.525450 -21.334998 28.637522 4.528790 -7.848448 2.912771 0.000000 -0.000000 0.000000 4.349254 -16.011059 1.901022 4.185992 -5.620557 10.104809 -1.483722 -2.903279 -6.275626 -11.610593 6.187671 0.234243 -0.396052 5.214637 0.779580 -27.211398 0.052439 2.390191 -28.977004 -8.392937 14.394252 40.848178 -87.043640 -35.180000 12.552917 -19.473883 -4.723215 25.037708 -0.310044 3.855691 28.641116 -7.916592 3.480936 1.321849 44.238774 -12.929585 1.274282 17.417945 -18.189624 
0.097172 -0.047623 0.936526 -176.293261 1.414159 102.533878 16.965888 4.010157 15.588142 -3.008047 -8.722988 34.038884 -6.201690 14.401900 -5.377285 0.000000 -0.000000 0.000000 -10.733896 -8.687092 -52.721464 3.722386 -20.308022 31.444848 3.743638 -6.101809 4.789638 0.000000 -0.000000 0.000000 4.590612 -15.153939 1.973410 4.696793 -5.526966 12.184511 -1.588928 -2.312095 -6.529511 -12.834875 6.588312 1.245032 -1.662602 6.812182 0.234569 -28.874607 -0.089664 2.263566 -29.867295 -7.517902 15.923446 2.505236 -82.458884 2.407312 10.506022 -18.737622 -4.242108 26.564237 0.641475 3.859057 25.911966 -6.402979 3.432813 -0.695808 44.851001 -16.423603 1.824738 16.452487 -16.035213 
0.110682 0.033915 0.922146 -179.490978 1.521380 98.410612 14.864704 3.395830 14.057962 -6.641955 -6.306952 52.491762 -4.759187 14.646076 -8.634121 0.000000 -0.000000 0.000000 -9.660755 -6.719785 -50.569628 3.679481 -18.139342 43.836325 -2.996341 -7.597920 -3.679416 0.000000 -0.000000 0.000000 5.122429 -13.677798 6.512176 4.252076 -4.412032 11.608154 -2.137543 -1.549401 -6.077867 -13.684014 5.903232 0.400309 -2.697968 8.310319 1.493981 -30.425821 -0.658283 2.065923 -30.770667 -6.382644 17.204643 -5.525945 -74.750389 10.764604 8.421163 -17.621552 -3.753261 28.052762 1.836982 2.876152 24.412221 -6.149050 3.467882 -1.878409 46.592428 -17.866273 2.379381 15.960914 -16.696172 
0.121683 0.107920 0.912486 176.332118 1.686302 93.868393 13.133115 4.585232 10.284923 -8.516728 -1.622090 69.452193 -3.510549 13.421751 -13.054383 0.000000 -0.000000 0.000000 -8.235764 -4.105288 -46.506486 3.813046 -14.602300 52.875807 -3.885264 -9.356583 -11.420353 0.000000 -0.000000 0.000000 5.913139 -12.240443 14.548236 2.748268 -1.943003 8.513292 -2.703630 -0.116486 -5.209406 -13.499633 5.399762 -2.156121 -4.053052 9.188783 3.923350 -31.485368 -0.641988 0.992460 -32.669735 -5.369513 18.136280 -7.622783 -64.941827 12.902062 4.002317 -14.746295 -2.503608 29.520673 2.812901 1.764920 23.481173 -4.591602 3.019355 -1.061569 47.637524 -17.212848 4.500404 15.048026 -14.656370 
0.130792 0.176030 0.910044 174.762525 1.169659 92.883705 11.317291 4.554341 -0.794064 -8.636012 3.863881 83.182926 -2.285360 13.482499 -15.678437 0.000000 -0.000000 0.000000 -7.930686 -3.358758 -42.715513 4.257259 -12.663988 56.789980 -4.921801 -10.684218 -17.076287 0.000000 -0.000000 0.000000 6.499058 -9.849769 16.565989 1.889907 -1.504943 8.857674 -2.820799 0.774430 -5.705016 -14.267357 4.065951 -1.478029 -3.954458 10.699217 2.263321 -34.464584 -0.451565 1.705185 -33.072460 -3.963151 16.734258 -8.508469 -55.296009 12.862002 0.540042 -11.495232 2.642420 30.176850 3.121093 3.501853 23.169395 -1.719905 -0.145832 1.182910 48.463584 -14.665988 7.329694 13.886058 -11.717676 
